<?xml version="1.0" standalone="no"?>
<!DOCTYPE svg PUBLIC "-//W3C//DTD SVG 20010904//EN"
 "http://www.w3.org/TR/2001/REC-SVG-20010904/DTD/svg10.dtd">
<svg version="1.0" xmlns="http://www.w3.org/2000/svg"
 width="244.000000pt" height="244.000000pt" viewBox="0 0 244.000000 244.000000"
 preserveAspectRatio="xMidYMid meet">
<metadata>
Created by potrace 1.11, written by Peter Selinger 2001-2013
</metadata>
<g transform="translate(0.000000,244.000000) scale(0.100000,-0.100000)"
fill="#000000" stroke="none">
<path d="M1025 2156 c-362 -84 -633 -344 -731 -701 -15 -56 -19 -103 -19 -240
0 -150 3 -179 23 -245 38 -119 70 -189 127 -275 144 -217 371 -366 632 -416
90 -17 320 -7 408 18 356 101 614 376 690 736 19 88 19 286 0 374 -76 359
-324 625 -685 735 -85 27 -354 35 -445 14z m423 -115 c282 -81 501 -299 588
-586 24 -80 27 -106 27 -235 0 -129 -3 -155 -27 -235 -72 -239 -233 -428 -451
-531 -120 -57 -188 -74 -325 -81 -192 -10 -355 35 -511 139 -145 97 -259 235
-323 393 -75 184 -75 446 0 630 107 263 345 461 624 521 94 20 303 12 398 -15z"/>
<path d="M1739 1773 c-37 -23 -68 -73 -94 -155 l-24 -73 -11 31 c-21 59 -47
99 -74 114 -26 14 -28 14 -56 -17 -16 -17 -36 -58 -46 -90 -24 -79 -29 -82
-43 -26 -16 62 -48 119 -79 139 -13 9 -26 14 -28 11 -15 -15 -15 -113 1 -183
16 -74 83 -246 103 -266 26 -26 104 94 118 181 4 23 10 39 14 34 4 -4 24 -59
45 -120 20 -62 40 -113 45 -113 40 0 112 138 151 287 19 77 27 247 11 257 -4
2 -19 -3 -33 -11z"/>
<path d="M787 1754 c-15 -14 -39 -42 -52 -62 -56 -85 -104 -291 -91 -395 10
-74 17 -82 49 -57 38 30 69 85 93 170 12 41 24 68 27 60 48 -151 87 -184 141
-120 24 29 56 114 56 149 0 26 15 -1 35 -62 21 -64 82 -144 98 -128 20 20 2
191 -32 292 -47 144 -85 180 -130 123 -23 -29 -61 -125 -61 -154 0 -52 -22
-19 -55 82 -21 62 -40 116 -44 120 -4 4 -19 -4 -34 -18z"/>
<path d="M523 1102 c-9 -6 -5 -28 16 -88 113 -327 441 -536 776 -494 163 20
306 88 422 200 115 113 210 300 188 370 -7 21 -12 22 -69 17 -34 -3 -97 -19
-143 -38 -72 -28 -83 -35 -83 -56 0 -27 9 -32 75 -41 l46 -7 -31 -47 c-105
-158 -309 -267 -501 -268 -76 0 -199 33 -268 72 -82 46 -208 178 -256 267 -22
41 -51 82 -65 92 -29 21 -90 33 -107 21z"/>
</g>
</svg>
